<svg xmlns="http://www.w3.org/2000/svg" viewBox="0 0 1000 700">
  <!-- Background -->
  <rect width="1000" height="700" fill="#f8f9fa" />
  
  <!-- Title -->
  <text x="500" y="40" font-family="Arial" font-size="24" text-anchor="middle" font-weight="bold">Video to MP3 Converter - Architecture Diagram</text>
  
  <!-- Kubernetes Cluster Box -->
  <rect x="50" y="70" width="900" height="580" fill="#e6f3ff" stroke="#0078d7" stroke-width="2" rx="10" ry="10" />
  <text x="500" y="90" font-family="Arial" font-size="18" text-anchor="middle" font-weight="bold">Kubernetes Cluster</text>
  
  <!-- External Components -->
  <rect x="780" y="120" width="120" height="80" fill="#ffffff" stroke="#333" stroke-width="2" rx="5" ry="5" />
  <text x="840" y="160" font-family="Arial" font-size="14" text-anchor="middle">External MySQL</text>
  <text x="840" y="180" font-family="Arial" font-size="12" text-anchor="middle">User Auth Data</text>
  
  <rect x="780" y="220" width="120" height="80" fill="#ffffff" stroke="#333" stroke-width="2" rx="5" ry="5" />
  <text x="840" y="260" font-family="Arial" font-size="14" text-anchor="middle">External MongoDB</text>
  <text x="840" y="280" font-family="Arial" font-size="12" text-anchor="middle">File Storage (GridFS)</text>
  
  <!-- User -->
  <circle cx="100" cy="160" r="20" fill="#d9d9d9" stroke="#333" stroke-width="2" />
  <line x1="100" y1="180" x2="100" y2="220" stroke="#333" stroke-width="2" />
  <line x1="70" y1="200" x2="130" y2="200" stroke="#333" stroke-width="2" />
  <line x1="100" y1="220" x2="70" y2="260" stroke="#333" stroke-width="2" />
  <line x1="100" y1="220" x2="130" y2="260" stroke="#333" stroke-width="2" />
  <text x="100" y="290" font-family="Arial" font-size="14" text-anchor="middle">User</text>
  
  <!-- Ingress -->
  <rect x="180" y="140" width="120" height="60" fill="#ffffff" stroke="#333" stroke-width="2" rx="5" ry="5" />
  <text x="240" y="170" font-family="Arial" font-size="14" text-anchor="middle">Ingress</text>
  <text x="240" y="190" font-family="Arial" font-size="10" text-anchor="middle">mp3converter.com</text>
  
  <!-- Services -->
  <!-- Gateway Service -->
  <rect x="350" y="120" width="140" height="100" fill="#c5e1a5" stroke="#33691e" stroke-width="2" rx="5" ry="5" />
  <text x="420" y="145" font-family="Arial" font-size="16" text-anchor="middle" font-weight="bold">Gateway Service</text>
  <text x="420" y="165" font-family="Arial" font-size="12" text-anchor="middle">- User Interface</text>
  <text x="420" y="185" font-family="Arial" font-size="12" text-anchor="middle">- File Upload/Download</text>
  <text x="420" y="205" font-family="Arial" font-size="12" text-anchor="middle">- Request Routing</text>
  
  <!-- Auth Service -->
  <rect x="350" y="250" width="140" height="100" fill="#bbdefb" stroke="#1565c0" stroke-width="2" rx="5" ry="5" />
  <text x="420" y="275" font-family="Arial" font-size="16" text-anchor="middle" font-weight="bold">Auth Service</text>
  <text x="420" y="295" font-family="Arial" font-size="12" text-anchor="middle">- Authentication</text>
  <text x="420" y="315" font-family="Arial" font-size="12" text-anchor="middle">- JWT Generation</text>
  <text x="420" y="335" font-family="Arial" font-size="12" text-anchor="middle">- Token Validation</text>
  
  <!-- RabbitMQ -->
  <rect x="350" y="380" width="140" height="100" fill="#ffccbc" stroke="#bf360c" stroke-width="2" rx="5" ry="5" />
  <text x="420" y="405" font-family="Arial" font-size="16" text-anchor="middle" font-weight="bold">RabbitMQ</text>
  <text x="420" y="425" font-family="Arial" font-size="12" text-anchor="middle">- Message Broker</text>
  <text x="420" y="445" font-family="Arial" font-size="12" text-anchor="middle">- Video Queue</text>
  <text x="420" y="465" font-family="Arial" font-size="12" text-anchor="middle">- MP3 Queue</text>
  
  <!-- Converter Service -->
  <rect x="550" y="380" width="140" height="100" fill="#e1bee7" stroke="#6a1b9a" stroke-width="2" rx="5" ry="5" />
  <text x="620" y="405" font-family="Arial" font-size="16" text-anchor="middle" font-weight="bold">Converter Service</text>
  <text x="620" y="425" font-family="Arial" font-size="12" text-anchor="middle">- Video Processing</text>
  <text x="620" y="445" font-family="Arial" font-size="12" text-anchor="middle">- MP3 Conversion</text>
  <text x="620" y="465" font-family="Arial" font-size="12" text-anchor="middle">- File Storage</text>
  
  <!-- Notification Service -->
  <rect x="550" y="510" width="140" height="100" fill="#fff9c4" stroke="#f57f17" stroke-width="2" rx="5" ry="5" />
  <text x="620" y="535" font-family="Arial" font-size="16" text-anchor="middle" font-weight="bold">Notification Service</text>
  <text x="620" y="555" font-family="Arial" font-size="12" text-anchor="middle">- Email Notifications</text>
  <text x="620" y="575" font-family="Arial" font-size="12" text-anchor="middle">- User Alerts</text>
  <text x="620" y="595" font-family="Arial" font-size="12" text-anchor="middle">- Status Updates</text>
  
  <!-- Connection Lines -->
  <!-- User to Ingress -->
  <line x1="130" y1="170" x2="180" y2="170" stroke="#333" stroke-width="2" />
  <polygon points="175,165 185,170 175,175" fill="#333" />
  
  <!-- Ingress to Gateway -->
  <line x1="300" y1="170" x2="350" y2="170" stroke="#333" stroke-width="2" />
  <polygon points="345,165 355,170 345,175" fill="#333" />
  
  <!-- Gateway to Auth -->
  <line x1="420" y1="220" x2="420" y2="250" stroke="#333" stroke-width="2" />
  <polygon points="415,245 420,255 425,245" fill="#333" />
  
  <!-- Gateway to RabbitMQ -->
  <line x1="420" y1="350" x2="420" y2="380" stroke="#333" stroke-width="2" />
  <polygon points="415,375 420,385 425,375" fill="#333" />
  
  <!-- RabbitMQ to Converter -->
  <line x1="490" y1="430" x2="550" y2="430" stroke="#333" stroke-width="2" />
  <polygon points="545,425 555,430 545,435" fill="#333" />
  
  <!-- Converter to Notification (via RabbitMQ) -->
  <path d="M 490 480 C 520 520, 520 520, 550 560" stroke="#333" stroke-width="2" fill="none" />
  <polygon points="545,555 555,565 552,553" fill="#333" />
  
  <!-- Gateway to External MongoDB -->
  <path d="M 490 170 C 650 170, 650 260, 780 260" stroke="#333" stroke-width="2" fill="none" />
  <polygon points="775,255 785,260 775,265" fill="#333" />
  
  <!-- Auth to External MySQL -->
  <path d="M 490 300 C 650 300, 650 160, 780 160" stroke="#333" stroke-width="2" fill="none" />
  <polygon points="775,155 785,160 775,165" fill="#333" />
  
  <!-- Converter to External MongoDB -->
  <path d="M 690 430 C 740 430, 740 260, 780 260" stroke="#333" stroke-width="2" fill="none" />
  <polygon points="775,255 785,260 775,265" fill="#333" />
  
  <!-- Legend -->
  <rect x="70" y="610" width="20" height="20" fill="#c5e1a5" stroke="#333" stroke-width="1" />
  <text x="95" y="625" font-family="Arial" font-size="12" text-anchor="start">Gateway Service</text>
  
  <rect x="200" y="610" width="20" height="20" fill="#bbdefb" stroke="#333" stroke-width="1" />
  <text x="225" y="625" font-family="Arial" font-size="12" text-anchor="start">Auth Service</text>
  
  <rect x="330" y="610" width="20" height="20" fill="#ffccbc" stroke="#333" stroke-width="1" />
  <text x="355" y="625" font-family="Arial" font-size="12" text-anchor="start">RabbitMQ</text>
  
  <rect x="460" y="610" width="20" height="20" fill="#e1bee7" stroke="#333" stroke-width="1" />
  <text x="485" y="625" font-family="Arial" font-size="12" text-anchor="start">Converter Service</text>
  
  <rect x="620" y="610" width="20" height="20" fill="#fff9c4" stroke="#333" stroke-width="1" />
  <text x="645" y="625" font-family="Arial" font-size="12" text-anchor="start">Notification Service</text>
  
  <rect x="780" y="610" width="20" height="20" fill="#ffffff" stroke="#333" stroke-width="1" />
  <text x="805" y="625" font-family="Arial" font-size="12" text-anchor="start">External Services</text>
</svg>